<svg width="240" height="79" viewBox="0 0 240 79" fill="none" xmlns="http://www.w3.org/2000/svg">
<path d="M129.676 65.0932C126.946 62.7435 124.31 60.2349 121.77 57.5676C119.293 54.8368 116.975 52.0425 114.816 49.1847C112.72 46.3269 110.783 43.4373 109.005 40.516C107.29 37.5311 105.829 34.6098 104.623 31.752C102.464 34.1018 100.304 36.4833 98.1451 38.8965C96.0493 41.2463 94.1759 43.6278 92.5247 46.0411C90.8735 48.3909 89.5399 50.7724 88.5237 53.1856C87.4441 55.5354 86.9043 57.8852 86.9043 60.2349C86.9043 63.0292 87.3806 65.4425 88.3332 67.4747C89.2223 69.4435 90.429 71.0629 91.9531 72.333C93.4773 73.6032 95.2237 74.524 97.1925 75.0956C99.1612 75.6672 101.193 75.9529 103.289 75.9529C107.481 75.9529 111.926 74.9686 116.626 72.9999C121.325 71.0311 125.675 68.3956 129.676 65.0932ZM117.864 8.60364C117.864 6.38089 117.356 4.79321 116.34 3.84061C115.387 2.8245 114.339 2.31644 113.196 2.31644C112.244 2.31644 111.228 2.63397 110.148 3.26905C109.132 3.90412 108.179 4.82497 107.29 6.0316C106.465 7.17473 105.766 8.57189 105.194 10.2231C104.623 11.8743 104.337 13.6842 104.337 15.6529C104.337 19.2728 105.004 23.115 106.337 27.1795C107.925 25.5283 109.418 23.9089 110.815 22.3212C112.212 20.7335 113.419 19.1776 114.435 17.6534C115.514 16.0657 116.34 14.5416 116.911 13.0809C117.547 11.5567 117.864 10.0643 117.864 8.60364ZM154.539 78.1439C154.539 78.3345 154.412 78.525 154.158 78.7155C153.904 78.906 153.523 79.0013 153.015 79.0013C149.205 77.7947 145.458 76.1117 141.774 73.9525C138.091 71.7297 134.503 69.1577 131.01 66.2364C128.597 68.0781 126.088 69.761 123.484 71.2852C120.881 72.8093 118.213 74.1112 115.483 75.1909C112.815 76.2705 110.116 77.0961 107.385 77.6676C104.718 78.2392 102.146 78.525 99.6692 78.525C97.256 78.525 94.9697 78.1757 92.8105 77.4771C90.6512 76.842 88.7778 75.8577 87.1901 74.524C85.6024 73.1269 84.364 71.4122 83.4749 69.38C82.5223 67.3477 82.046 64.9662 82.046 62.2354C82.046 59.3141 82.7128 56.4563 84.0465 53.6619C85.3801 50.8041 87.0948 48.0098 89.1906 45.279C91.2863 42.5482 93.6043 39.8809 96.1446 37.2771C98.7484 34.6733 101.289 32.133 103.765 29.6563C101.924 24.7027 101.003 20.2254 101.003 16.2245C101.003 13.8747 101.416 11.7155 102.241 9.74677C103.13 7.77805 104.242 6.09511 105.575 4.69795C106.909 3.3008 108.37 2.22118 109.957 1.45909C111.609 0.6335 113.165 0.220703 114.625 0.220703C116.34 0.220703 117.896 0.792267 119.293 1.9354C120.69 3.01501 121.389 4.82497 121.389 7.36525C121.389 8.95293 120.976 10.6041 120.15 12.3188C119.388 14.0335 118.34 15.8117 117.007 17.6534C115.737 19.4316 114.212 21.3051 112.434 23.2738C110.719 25.179 108.91 27.1477 107.004 29.1799C109.1 34.9591 112.212 40.8335 116.34 46.8032C120.531 52.7093 125.612 58.2345 131.582 63.3785C134.82 60.4572 137.424 57.2501 139.393 53.7572C141.362 50.2643 142.346 46.6127 142.346 42.8022C142.346 41.5321 142.156 40.2619 141.774 38.9918C141.457 37.6582 140.79 36.261 139.774 34.8003C139.774 34.6733 139.965 34.5463 140.346 34.4193C140.727 34.2288 141.076 34.1335 141.393 34.1335C142.283 34.1335 142.981 34.451 143.489 35.0861C144.061 35.6577 144.474 36.3563 144.728 37.1818C145.045 38.0074 145.236 38.8648 145.299 39.7539C145.426 40.5795 145.49 41.2463 145.49 41.7544C145.49 45.9458 144.315 50.0103 141.965 53.9477C139.679 57.8217 136.694 61.3781 133.01 64.6169C139.171 69.888 146.125 74.1747 153.873 77.4771C154.317 77.7311 154.539 77.9534 154.539 78.1439Z" fill="#FFA55C"/>
<path d="M18.24 44.1288C18.24 42.1448 18.112 40.4968 17.856 39.1848C17.632 37.8728 17.312 37.2168 16.896 37.2168C16.64 37.2168 16.4 37.4088 16.176 37.7928C15.952 38.1448 15.76 38.6568 15.6 39.3288C15.472 39.9688 15.36 40.7368 15.264 41.6328C15.2 42.4968 15.168 43.4408 15.168 44.4648C15.168 46.2888 15.296 48.2568 15.552 50.3688C15.808 52.4488 16.256 54.4648 16.896 56.4168C17.344 54.3688 17.68 52.2728 17.904 50.1288C18.128 47.9528 18.24 45.9528 18.24 44.1288ZM38.352 22.3368C38.352 22.4968 38.288 22.6248 38.16 22.7208C38.032 22.8168 37.872 22.9288 37.68 23.0568C36.72 23.6328 35.936 24.4328 35.328 25.4568C34.72 26.4808 34.224 27.6008 33.84 28.8168C33.488 30.0328 33.248 31.2808 33.12 32.5608C32.992 33.8088 32.928 34.9608 32.928 36.0168C32.928 36.7528 32.96 37.6648 33.024 38.7528C33.12 39.8088 33.216 40.9768 33.312 42.2568C33.44 43.5368 33.536 44.8968 33.6 46.3368C33.696 47.7448 33.744 49.1848 33.744 50.6568C33.744 52.7368 33.616 54.7528 33.36 56.7048C33.136 58.6568 32.672 60.4008 31.968 61.9368C31.296 63.4728 30.352 64.7048 29.136 65.6328C27.92 66.5608 26.336 67.0248 24.384 67.0248C23.488 67.0248 22.64 66.8488 21.84 66.4968C21.072 66.1768 20.352 65.7128 19.68 65.1048C19.04 64.4968 18.448 63.7928 17.904 62.9928C17.392 62.1928 16.928 61.3128 16.512 60.3528C16.096 61.4728 15.6 62.5128 15.024 63.4728C14.48 64.4328 13.872 65.2648 13.2 65.9688C12.528 66.6728 11.792 67.2168 10.992 67.6008C10.192 67.9848 9.34399 68.1768 8.44799 68.1768C7.07199 68.1768 5.90399 67.8248 4.94399 67.1208C4.01599 66.4168 3.24799 65.4888 2.63999 64.3368C2.03199 63.2168 1.55199 61.9368 1.19999 60.4968C0.879991 59.0248 0.639991 57.5368 0.479991 56.0328C0.319991 54.4968 0.207991 53.0088 0.143991 51.5688C0.111991 50.0968 0.0799912 48.8008 0.0479912 47.6808C-0.0160088 45.6648 0.0159912 43.7608 0.143991 41.9688C0.303991 40.1448 0.479991 38.5128 0.671991 37.0728C0.863991 35.6008 1.05599 34.3368 1.24799 33.2808C1.43999 32.2248 1.56799 31.4408 1.63199 30.9288C1.66399 30.7368 1.85599 30.6088 2.20799 30.5448C2.59199 30.4808 2.92799 30.4488 3.21599 30.4488C3.43999 30.4488 3.63199 30.4808 3.79199 30.5448C3.95199 30.5768 4.03199 30.6728 4.03199 30.8328C4.03199 31.0248 3.95199 31.3608 3.79199 31.8408C3.63199 32.2888 3.39199 33.1528 3.07199 34.4328C2.94399 35.0088 2.79999 35.8408 2.63999 36.9288C2.51199 37.9848 2.38399 39.1848 2.25599 40.5288C2.15999 41.8728 2.07999 43.3128 2.01599 44.8488C1.95199 46.3528 1.91999 47.8248 1.91999 49.2648C1.91999 50.3848 1.96799 51.6168 2.06399 52.9608C2.15999 54.2728 2.31999 55.5848 2.54399 56.8968C2.76799 58.1768 3.07199 59.4248 3.45599 60.6408C3.83999 61.8568 4.30399 62.9288 4.84799 63.8568C5.42399 64.7848 6.09599 65.5208 6.86399 66.0648C7.63199 66.6408 8.52799 66.9288 9.55199 66.9288C10.32 66.9288 11.024 66.7368 11.664 66.3528C12.304 65.9688 12.896 65.4248 13.44 64.7208C13.984 64.0488 14.464 63.2488 14.88 62.3208C15.328 61.3928 15.728 60.3848 16.08 59.2968C15.344 57.2808 14.8 55.1368 14.448 52.8648C14.096 50.5928 13.92 48.4968 13.92 46.5768C13.92 45.1688 13.968 43.7768 14.064 42.4008C14.192 41.0248 14.368 39.7928 14.592 38.7048C14.816 37.6168 15.104 36.7368 15.456 36.0648C15.808 35.3928 16.224 35.0568 16.704 35.0568C17.088 35.0568 17.424 35.2968 17.712 35.7768C18.032 36.2568 18.288 36.9128 18.48 37.7448C18.704 38.5768 18.864 39.5688 18.96 40.7208C19.088 41.8408 19.152 43.0568 19.152 44.3688C19.152 46.4808 19.008 48.7048 18.72 51.0408C18.432 53.3448 17.984 55.6008 17.376 57.8088C17.792 58.9288 18.272 59.9688 18.816 60.9288C19.36 61.8568 19.968 62.6728 20.64 63.3768C21.344 64.0808 22.112 64.6248 22.944 65.0088C23.808 65.4248 24.752 65.6328 25.776 65.6328C27.184 65.6328 28.336 65.2808 29.232 64.5768C30.128 63.9048 30.832 62.9768 31.344 61.7928C31.856 60.5768 32.208 59.1848 32.4 57.6168C32.592 56.0168 32.688 54.3048 32.688 52.4808C32.688 50.8488 32.624 49.1688 32.496 47.4408C32.4 45.7128 32.288 44.0008 32.16 42.3048C32.032 40.5768 31.904 38.9128 31.776 37.3128C31.68 35.6808 31.632 34.1768 31.632 32.8008C31.632 31.8088 31.776 30.6568 32.064 29.3448C32.384 28.0328 32.8 26.8008 33.312 25.6488C33.856 24.4648 34.464 23.4728 35.136 22.6728C35.84 21.8408 36.576 21.4248 37.344 21.4248C37.568 21.4248 37.792 21.5368 38.016 21.7608C38.24 21.9528 38.352 22.1448 38.352 22.3368Z" fill="#FFF9F4"/>
<path d="M53.3396 54.2088C53.3396 53.7288 53.2596 53.3448 53.0996 53.0568C52.9396 52.7368 52.6836 52.5768 52.3316 52.5768C51.7876 52.5768 51.3716 52.8488 51.0836 53.3928C50.7956 53.9048 50.6676 54.5608 50.6996 55.3608C50.7956 57.0568 51.0996 58.4808 51.6116 59.6328C52.1556 58.8968 52.5716 58.0648 52.8596 57.1368C53.1796 56.2088 53.3396 55.2328 53.3396 54.2088ZM66.2996 54.1608C66.0756 54.6408 65.8356 55.1368 65.5796 55.6488C65.3236 56.1288 65.0356 56.6088 64.7156 57.0888C63.0836 59.5208 61.4356 61.3288 59.7716 62.5128C58.1076 63.6968 56.5556 64.2888 55.1156 64.2888C53.2916 64.2888 51.8996 63.4248 50.9396 61.6968C49.8196 62.8168 48.5556 63.6648 47.1476 64.2408C45.7716 64.8168 44.4116 65.1048 43.0676 65.1048C42.2676 65.1048 41.4996 64.9928 40.7636 64.7688C40.0596 64.5448 39.4516 64.2088 38.9396 63.7608C38.3956 63.2808 37.9636 62.6888 37.6436 61.9848C37.3236 61.2488 37.1636 60.4008 37.1636 59.4408C37.1636 58.2888 37.4356 57.1208 37.9796 55.9368C38.4916 54.7208 39.2116 53.6328 40.1396 52.6728C41.0996 51.6808 42.2196 50.8648 43.4996 50.2248C44.7796 49.5848 46.1716 49.2648 47.6756 49.2648C48.8916 49.2648 49.8356 49.4408 50.5076 49.7928C51.1796 50.1128 51.5156 50.4168 51.5156 50.7048C51.5156 50.8328 51.4516 50.9288 51.3236 50.9928C51.1956 51.0568 51.0836 51.0888 50.9876 51.0888C50.9556 51.0568 50.9236 51.0408 50.8916 51.0408H50.8436C50.4596 50.6888 50.0276 50.4168 49.5476 50.2248C49.0676 50.0008 48.3636 49.8888 47.4356 49.8888C46.1876 49.8888 45.0516 50.1608 44.0276 50.7048C43.0356 51.2168 42.1876 51.9048 41.4836 52.7688C40.7796 53.6008 40.2356 54.5288 39.8516 55.5528C39.4676 56.5768 39.2756 57.5848 39.2756 58.5768C39.2756 60.4968 39.7236 61.8888 40.6196 62.7528C41.5156 63.6168 42.6356 64.0488 43.9796 64.0488C45.0676 64.0488 46.2036 63.7768 47.3876 63.2328C48.5716 62.6888 49.6276 61.9208 50.5556 60.9288C50.0436 59.7768 49.7876 58.2728 49.7876 56.4168C49.7876 55.2008 50.0116 54.1448 50.4596 53.2488C50.9076 52.3528 51.5476 51.9048 52.3796 51.9048C53.5316 51.9048 54.1076 52.5768 54.1076 53.9208C54.1076 55.2648 53.9156 56.4808 53.5316 57.5688C53.1476 58.6248 52.6356 59.5848 51.9956 60.4488C52.8916 62.1128 54.1396 62.9448 55.7396 62.9448C56.9556 62.9448 58.2516 62.4328 59.6276 61.4088C61.0356 60.3848 62.4116 58.8968 63.7556 56.9448C64.0756 56.4648 64.3636 55.9688 64.6196 55.4568C64.8756 54.9448 65.1316 54.4328 65.3876 53.9208L66.2996 54.1608Z" fill="#FFF9F4"/>
<path d="M72.9667 32.7048C72.9667 30.8808 72.6627 29.4248 72.0547 28.3368C71.4787 27.2168 70.5027 26.6568 69.1267 26.6568C68.6467 26.6568 68.1987 26.8168 67.7827 27.1368C67.3987 27.4248 67.0627 27.8248 66.7747 28.3368C66.4867 28.8488 66.2627 29.4408 66.1027 30.1128C65.9427 30.7848 65.8627 31.5048 65.8627 32.2728C65.8627 34.3848 65.8787 36.3048 65.9107 38.0328C65.9427 39.7608 65.9747 41.3928 66.0067 42.9288C66.0707 44.4648 66.1347 45.9528 66.1987 47.3928C66.2627 48.8328 66.3267 50.3048 66.3907 51.8088C67.3187 50.5608 68.1827 49.1368 68.9827 47.5368C69.7827 45.9048 70.4707 44.2408 71.0467 42.5448C71.6547 40.8168 72.1187 39.1048 72.4387 37.4088C72.7907 35.7128 72.9667 34.1448 72.9667 32.7048ZM90.3427 54.1608C90.1187 54.6408 89.8787 55.1368 89.6227 55.6488C89.3987 56.1608 89.1107 56.6408 88.7587 57.0888C86.9987 59.5848 84.9987 61.5528 82.7587 62.9928C80.5187 64.4008 78.2947 65.1048 76.0867 65.1048C74.7107 65.1048 73.3987 64.7848 72.1507 64.1448C70.9027 63.5368 69.7987 62.5448 68.8387 61.1688C68.7107 61.0088 68.6467 60.8648 68.6467 60.7368C68.6467 60.4488 68.8387 60.3048 69.2227 60.3048C69.2547 60.3048 69.3667 60.3368 69.5587 60.4008C69.8147 60.4008 70.1027 60.4968 70.4227 60.6888C70.7747 60.8488 71.2707 60.9288 71.9107 60.9288C72.9027 60.9288 73.8307 60.7528 74.6947 60.4008C75.5587 60.0488 76.2947 59.6008 76.9027 59.0568C77.5427 58.4808 78.0387 57.8408 78.3907 57.1368C78.7427 56.4008 78.9187 55.6488 78.9187 54.8808C78.9187 53.9208 78.6627 53.0888 78.1507 52.3848C77.6707 51.6808 76.8387 51.3288 75.6547 51.3288C74.4387 51.3288 73.3187 51.7608 72.2947 52.6248C71.2707 53.4568 70.3427 54.4808 69.5107 55.6968C68.7107 56.8808 68.0227 58.1448 67.4467 59.4888C66.8707 60.8008 66.4387 61.9528 66.1507 62.9448C65.9907 63.4888 65.8467 63.8248 65.7187 63.9528C65.5907 64.0808 65.4467 64.1448 65.2867 64.1448C64.9347 64.1448 64.7747 63.8088 64.8067 63.1368C64.8067 62.8488 64.8227 62.4968 64.8547 62.0808C64.8867 61.6648 64.9187 61.2168 64.9507 60.7368C64.9507 60.2568 64.9667 59.7768 64.9987 59.2968C65.0307 58.7848 65.0467 58.3208 65.0467 57.9048C65.0467 56.4648 65.0147 54.8168 64.9507 52.9608C64.8867 51.0728 64.8067 49.1368 64.7107 47.1528C64.6147 45.1368 64.5347 43.1368 64.4707 41.1528C64.4067 39.1688 64.3747 37.3448 64.3747 35.6808C64.3747 34.3688 64.4707 33.1048 64.6627 31.8888C64.8547 30.6408 65.1587 29.5528 65.5747 28.6248C65.9907 27.6648 66.5187 26.9128 67.1587 26.3688C67.7987 25.7928 68.5507 25.5048 69.4147 25.5048C70.3107 25.5048 71.0627 25.6648 71.6707 25.9848C72.3107 26.2728 72.8227 26.7048 73.2067 27.2808C73.5907 27.8248 73.8627 28.4968 74.0227 29.2968C74.2147 30.0648 74.3107 30.9128 74.3107 31.8408C74.3107 33.4408 74.0867 35.2008 73.6387 37.1208C73.1907 39.0088 72.5987 40.9128 71.8627 42.8328C71.1267 44.7528 70.2787 46.6088 69.3187 48.4008C68.3907 50.1608 67.4307 51.6968 66.4387 53.0088C66.5027 53.9688 66.5347 54.9608 66.5347 55.9848C66.5667 57.0088 66.6147 58.0968 66.6787 59.2488C67.4787 57.5208 68.3587 56.0328 69.3187 54.7848C69.7347 54.2408 70.1987 53.7128 70.7107 53.2008C71.2547 52.6568 71.8147 52.1768 72.3907 51.7608C72.9987 51.3448 73.6387 51.0088 74.3107 50.7528C75.0147 50.4968 75.7507 50.3688 76.5187 50.3688C77.7347 50.3688 78.7907 50.6728 79.6867 51.2808C80.5827 51.8888 81.0307 52.8648 81.0307 54.2088C81.0307 55.4888 80.7107 56.5768 80.0707 57.4728C79.4627 58.3688 78.6947 59.1208 77.7667 59.7288C76.8387 60.3048 75.8467 60.7368 74.7907 61.0248C73.7347 61.3128 72.7747 61.4888 71.9107 61.5528C71.8467 61.5528 71.8147 61.5688 71.8147 61.6008C71.8147 61.6648 71.8627 61.7608 71.9587 61.8888C72.5987 62.6248 73.3187 63.1528 74.1187 63.4728C74.9187 63.7928 75.7507 63.9528 76.6147 63.9528C77.6707 63.9528 78.7427 63.7608 79.8307 63.3768C80.9187 62.9608 81.9587 62.4328 82.9507 61.7928C83.9427 61.1208 84.8547 60.3688 85.6867 59.5368C86.5507 58.6728 87.2547 57.8088 87.7987 56.9448C88.1187 56.4648 88.4067 55.9688 88.6627 55.4568C88.9187 54.9448 89.1747 54.4328 89.4307 53.9208L90.3427 54.1608Z" fill="#FFF9F4"/>
<path d="M97.1096 51.1848C97.1096 50.3208 96.8856 49.6168 96.4376 49.0728C96.0216 48.4968 95.3336 48.2088 94.3736 48.2088C93.8616 48.2088 93.3976 48.3688 92.9816 48.6888C92.5656 49.0088 92.2136 49.4408 91.9256 49.9848C91.6376 50.4968 91.4136 51.1048 91.2536 51.8088C91.0936 52.5128 91.0136 53.2488 91.0136 54.0168C91.0136 55.2328 91.1416 56.3208 91.3976 57.2808C91.6856 58.2088 92.0856 59.0248 92.5976 59.7288C93.2696 59.1848 93.8776 58.5608 94.4216 57.8568C94.9656 57.1528 95.4296 56.4168 95.8136 55.6488C96.2296 54.8808 96.5496 54.1128 96.7736 53.3448C96.9976 52.5768 97.1096 51.8568 97.1096 51.1848ZM109.254 54.1608C109.03 54.6408 108.79 55.1368 108.534 55.6488C108.31 56.1288 108.022 56.6088 107.67 57.0888C106.102 59.3288 104.31 61.0248 102.294 62.1768C100.31 63.2968 98.4056 63.8568 96.5816 63.8568C95.5576 63.8568 94.5976 63.6808 93.7016 63.3288C92.8376 62.9768 92.0856 62.4488 91.4456 61.7448C90.8056 61.0408 90.2936 60.1608 89.9096 59.1048C89.5256 58.0488 89.3336 56.8008 89.3336 55.3608C89.3336 54.4008 89.4776 53.4408 89.7656 52.4808C90.0536 51.5208 90.4376 50.6568 90.9176 49.8888C91.4296 49.1208 92.0056 48.4968 92.6456 48.0168C93.3176 47.5368 94.0216 47.2968 94.7576 47.2968C95.9416 47.2968 96.8056 47.6488 97.3496 48.3528C97.8936 49.0248 98.1656 49.8888 98.1656 50.9448C98.1656 52.3848 97.7176 53.9528 96.8216 55.6488C95.9576 57.3128 94.7096 58.8648 93.0776 60.3048C94.2936 61.6808 95.8616 62.3688 97.7816 62.3688C99.2216 62.3688 100.726 61.9368 102.294 61.0728C103.862 60.1768 105.334 58.8008 106.71 56.9448C107.062 56.4968 107.35 56.0168 107.574 55.5048C107.83 54.9608 108.086 54.4328 108.342 53.9208L109.254 54.1608Z" fill="#FFF9F4"/>
<path d="M150.839 42.0648C149.655 42.0648 148.519 42.1928 147.431 42.4488C146.375 42.7048 145.431 43.0088 144.599 43.3608C143.799 43.7128 143.143 44.0808 142.631 44.4648C142.151 44.8488 141.911 45.1848 141.911 45.4728C141.911 45.8568 142.359 46.0488 143.255 46.0488C144.791 46.0488 146.247 45.6808 147.623 44.9448C149.031 44.2088 150.295 43.2488 151.415 42.0648H150.839ZM164.807 49.2648C164.807 50.8328 164.359 52.5288 163.463 54.3528C162.599 56.1768 161.399 57.9848 159.863 59.7768C158.327 61.5688 156.503 63.2968 154.391 64.9608C152.279 66.6248 150.007 68.0968 147.575 69.3768C145.143 70.6568 142.583 71.6648 139.895 72.4008C137.207 73.1688 134.519 73.5528 131.831 73.5528C131.383 73.5528 130.887 73.5368 130.343 73.5048C129.831 73.4728 129.351 73.3928 128.903 73.2648C128.455 73.1688 128.071 72.9928 127.751 72.7368C127.431 72.5128 127.271 72.1928 127.271 71.7768C127.271 71.2008 127.559 70.6408 128.135 70.0968C128.711 69.5848 129.447 69.1048 130.343 68.6568C131.239 68.2088 132.215 67.8088 133.271 67.4568C134.327 67.1048 135.335 66.8008 136.295 66.5448C137.287 66.2888 138.151 66.0808 138.887 65.9208C139.623 65.7928 140.119 65.7288 140.375 65.7288C140.567 65.7288 140.711 65.7768 140.807 65.8728C140.903 65.9688 140.951 66.0648 140.951 66.1608C140.951 66.3208 140.871 66.4008 140.711 66.4008H140.087C139.255 66.4008 138.199 66.5608 136.919 66.8808C135.639 67.2008 134.391 67.6008 133.175 68.0808C131.959 68.5608 130.919 69.0888 130.055 69.6648C129.191 70.2728 128.759 70.8328 128.759 71.3448C128.759 71.6968 128.871 71.9688 129.095 72.1608C129.351 72.3848 129.655 72.5608 130.007 72.6888C130.359 72.8168 130.727 72.8968 131.111 72.9288C131.495 72.9928 131.831 73.0248 132.119 73.0248C134.391 73.0248 136.711 72.6408 139.079 71.8728C141.479 71.1048 143.799 70.0808 146.039 68.8008C148.311 67.5528 150.439 66.0968 152.423 64.4328C154.439 62.8008 156.199 61.1048 157.703 59.3448C159.207 57.5528 160.391 55.7768 161.255 54.0168C162.119 52.2248 162.551 50.5608 162.551 49.0248C162.551 47.1368 161.767 45.5688 160.199 44.3208C158.663 43.0408 156.119 42.3048 152.567 42.1128C151.127 43.4568 149.543 44.5448 147.815 45.3768C146.119 46.2088 144.391 46.6248 142.631 46.6248C141.383 46.6248 140.759 46.3208 140.759 45.7128C140.759 45.3288 141.015 44.8968 141.527 44.4168C142.071 43.9048 142.807 43.4248 143.735 42.9768C144.695 42.5288 145.831 42.1608 147.143 41.8728C148.455 41.5528 149.895 41.3928 151.463 41.3928H152.039C153.095 40.1448 153.943 38.7848 154.583 37.3128C155.223 35.8088 155.543 34.3368 155.543 32.8968C155.543 31.9368 155.367 31.0248 155.015 30.1608C154.695 29.2648 154.151 28.4968 153.383 27.8568C152.647 27.2168 151.671 26.7048 150.455 26.3208C149.271 25.9368 147.831 25.7448 146.135 25.7448C144.983 25.7448 143.383 25.9048 141.335 26.2248C139.319 26.5448 137.127 27.0408 134.759 27.7128C132.423 28.3528 130.039 29.1688 127.607 30.1608C125.175 31.1528 122.967 32.3048 120.983 33.6168C118.999 34.9288 117.383 36.4168 116.135 38.0808C114.887 39.7448 114.263 41.5848 114.263 43.6008C114.263 43.8568 114.215 44.0808 114.119 44.2728C114.023 44.4328 113.927 44.5128 113.831 44.5128C113.703 44.5128 113.607 44.3848 113.543 44.1288C113.447 43.8408 113.399 43.3768 113.399 42.7368C113.687 40.6568 114.535 38.7688 115.943 37.0728C117.351 35.3768 119.095 33.8728 121.175 32.5608C123.223 31.2168 125.479 30.0648 127.943 29.1048C130.407 28.1448 132.839 27.3608 135.239 26.7528C137.671 26.1128 139.927 25.6488 142.007 25.3608C144.119 25.0408 145.847 24.8808 147.191 24.8808C149.143 24.8808 150.791 25.0728 152.135 25.4568C153.511 25.8088 154.631 26.3048 155.495 26.9448C156.359 27.5528 156.983 28.2888 157.367 29.1528C157.751 30.0168 157.943 30.9288 157.943 31.8888C157.943 33.4568 157.511 35.0888 156.647 36.7848C155.815 38.4488 154.679 40.0008 153.239 41.4408C155.287 41.5368 157.047 41.8088 158.519 42.2568C159.991 42.6728 161.191 43.2328 162.119 43.9368C163.047 44.6088 163.719 45.4088 164.135 46.3368C164.583 47.2328 164.807 48.2088 164.807 49.2648ZM139.367 61.8888C139.367 62.3368 139.335 62.6568 139.271 62.8488C139.207 63.0408 139.031 63.1368 138.743 63.1368C138.103 63.2008 137.783 62.5608 137.783 61.2168C137.751 56.8008 137.703 52.7688 137.639 49.1208C137.607 45.4728 137.559 42.3208 137.495 39.6648C137.463 36.9768 137.431 34.8488 137.399 33.2808C137.367 31.7128 137.351 30.8168 137.351 30.5928C137.351 30.3368 137.431 30.1608 137.591 30.0648C137.751 29.9688 137.943 29.8888 138.167 29.8248C138.423 29.8248 138.615 29.9048 138.743 30.0648C138.903 30.2248 138.983 30.4168 138.983 30.6408C138.983 33.2008 138.999 35.8408 139.031 38.5608C139.063 41.2488 139.095 43.9368 139.127 46.6248C139.191 49.3128 139.239 51.9528 139.271 54.5448C139.335 57.1368 139.367 59.5848 139.367 61.8888Z" fill="#FFF9F4"/>
<path d="M183.465 54.2088C183.465 53.7288 183.385 53.3448 183.225 53.0568C183.065 52.7368 182.809 52.5768 182.457 52.5768C181.913 52.5768 181.497 52.8488 181.209 53.3928C180.921 53.9048 180.793 54.5608 180.825 55.3608C180.921 57.0568 181.225 58.4808 181.737 59.6328C182.281 58.8968 182.697 58.0648 182.985 57.1368C183.305 56.2088 183.465 55.2328 183.465 54.2088ZM196.425 54.1608C196.201 54.6408 195.961 55.1368 195.705 55.6488C195.449 56.1288 195.161 56.6088 194.841 57.0888C193.209 59.5208 191.561 61.3288 189.897 62.5128C188.233 63.6968 186.681 64.2888 185.241 64.2888C183.417 64.2888 182.025 63.4248 181.065 61.6968C179.945 62.8168 178.681 63.6648 177.273 64.2408C175.897 64.8168 174.537 65.1048 173.193 65.1048C172.393 65.1048 171.625 64.9928 170.889 64.7688C170.185 64.5448 169.577 64.2088 169.065 63.7608C168.521 63.2808 168.089 62.6888 167.769 61.9848C167.449 61.2488 167.289 60.4008 167.289 59.4408C167.289 58.2888 167.561 57.1208 168.105 55.9368C168.617 54.7208 169.337 53.6328 170.265 52.6728C171.225 51.6808 172.345 50.8648 173.625 50.2248C174.905 49.5848 176.297 49.2648 177.801 49.2648C179.017 49.2648 179.961 49.4408 180.633 49.7928C181.305 50.1128 181.641 50.4168 181.641 50.7048C181.641 50.8328 181.577 50.9288 181.449 50.9928C181.321 51.0568 181.209 51.0888 181.113 51.0888C181.081 51.0568 181.049 51.0408 181.017 51.0408H180.969C180.585 50.6888 180.153 50.4168 179.673 50.2248C179.193 50.0008 178.489 49.8888 177.561 49.8888C176.313 49.8888 175.177 50.1608 174.153 50.7048C173.161 51.2168 172.313 51.9048 171.609 52.7688C170.905 53.6008 170.361 54.5288 169.977 55.5528C169.593 56.5768 169.401 57.5848 169.401 58.5768C169.401 60.4968 169.849 61.8888 170.745 62.7528C171.641 63.6168 172.761 64.0488 174.105 64.0488C175.193 64.0488 176.329 63.7768 177.513 63.2328C178.697 62.6888 179.753 61.9208 180.681 60.9288C180.169 59.7768 179.913 58.2728 179.913 56.4168C179.913 55.2008 180.137 54.1448 180.585 53.2488C181.033 52.3528 181.673 51.9048 182.505 51.9048C183.657 51.9048 184.233 52.5768 184.233 53.9208C184.233 55.2648 184.041 56.4808 183.657 57.5688C183.273 58.6248 182.761 59.5848 182.121 60.4488C183.017 62.1128 184.265 62.9448 185.865 62.9448C187.081 62.9448 188.377 62.4328 189.753 61.4088C191.161 60.3848 192.537 58.8968 193.881 56.9448C194.201 56.4648 194.489 55.9688 194.745 55.4568C195.001 54.9448 195.257 54.4328 195.513 53.9208L196.425 54.1608Z" fill="#FFF9F4"/>
<path d="M203.092 32.7048C203.092 30.8808 202.788 29.4248 202.18 28.3368C201.604 27.2168 200.628 26.6568 199.252 26.6568C198.772 26.6568 198.324 26.8168 197.908 27.1368C197.524 27.4248 197.188 27.8248 196.9 28.3368C196.612 28.8488 196.388 29.4408 196.228 30.1128C196.068 30.7848 195.988 31.5048 195.988 32.2728C195.988 34.3848 196.004 36.3048 196.036 38.0328C196.068 39.7608 196.1 41.3928 196.132 42.9288C196.196 44.4648 196.26 45.9528 196.324 47.3928C196.388 48.8328 196.452 50.3048 196.516 51.8088C197.444 50.5608 198.308 49.1368 199.108 47.5368C199.908 45.9048 200.596 44.2408 201.172 42.5448C201.78 40.8168 202.244 39.1048 202.564 37.4088C202.916 35.7128 203.092 34.1448 203.092 32.7048ZM220.468 54.1608C220.244 54.6408 220.004 55.1368 219.748 55.6488C219.524 56.1608 219.236 56.6408 218.884 57.0888C217.124 59.5848 215.124 61.5528 212.884 62.9928C210.644 64.4008 208.42 65.1048 206.212 65.1048C204.836 65.1048 203.524 64.7848 202.276 64.1448C201.028 63.5368 199.924 62.5448 198.964 61.1688C198.836 61.0088 198.772 60.8648 198.772 60.7368C198.772 60.4488 198.964 60.3048 199.348 60.3048C199.38 60.3048 199.492 60.3368 199.684 60.4008C199.94 60.4008 200.228 60.4968 200.548 60.6888C200.9 60.8488 201.396 60.9288 202.036 60.9288C203.028 60.9288 203.956 60.7528 204.82 60.4008C205.684 60.0488 206.42 59.6008 207.028 59.0568C207.668 58.4808 208.164 57.8408 208.516 57.1368C208.868 56.4008 209.044 55.6488 209.044 54.8808C209.044 53.9208 208.788 53.0888 208.276 52.3848C207.796 51.6808 206.964 51.3288 205.78 51.3288C204.564 51.3288 203.444 51.7608 202.42 52.6248C201.396 53.4568 200.468 54.4808 199.636 55.6968C198.836 56.8808 198.148 58.1448 197.572 59.4888C196.996 60.8008 196.564 61.9528 196.276 62.9448C196.116 63.4888 195.972 63.8248 195.844 63.9528C195.716 64.0808 195.572 64.1448 195.412 64.1448C195.06 64.1448 194.9 63.8088 194.932 63.1368C194.932 62.8488 194.948 62.4968 194.98 62.0808C195.012 61.6648 195.044 61.2168 195.076 60.7368C195.076 60.2568 195.092 59.7768 195.124 59.2968C195.156 58.7848 195.172 58.3208 195.172 57.9048C195.172 56.4648 195.14 54.8168 195.076 52.9608C195.012 51.0728 194.932 49.1368 194.836 47.1528C194.74 45.1368 194.66 43.1368 194.596 41.1528C194.532 39.1688 194.5 37.3448 194.5 35.6808C194.5 34.3688 194.596 33.1048 194.788 31.8888C194.98 30.6408 195.284 29.5528 195.7 28.6248C196.116 27.6648 196.644 26.9128 197.284 26.3688C197.924 25.7928 198.676 25.5048 199.54 25.5048C200.436 25.5048 201.188 25.6648 201.796 25.9848C202.436 26.2728 202.948 26.7048 203.332 27.2808C203.716 27.8248 203.988 28.4968 204.148 29.2968C204.34 30.0648 204.436 30.9128 204.436 31.8408C204.436 33.4408 204.212 35.2008 203.764 37.1208C203.316 39.0088 202.724 40.9128 201.988 42.8328C201.252 44.7528 200.404 46.6088 199.444 48.4008C198.516 50.1608 197.556 51.6968 196.564 53.0088C196.628 53.9688 196.66 54.9608 196.66 55.9848C196.692 57.0088 196.74 58.0968 196.804 59.2488C197.604 57.5208 198.484 56.0328 199.444 54.7848C199.86 54.2408 200.324 53.7128 200.836 53.2008C201.38 52.6568 201.94 52.1768 202.516 51.7608C203.124 51.3448 203.764 51.0088 204.436 50.7528C205.14 50.4968 205.876 50.3688 206.644 50.3688C207.86 50.3688 208.916 50.6728 209.812 51.2808C210.708 51.8888 211.156 52.8648 211.156 54.2088C211.156 55.4888 210.836 56.5768 210.196 57.4728C209.588 58.3688 208.82 59.1208 207.892 59.7288C206.964 60.3048 205.972 60.7368 204.916 61.0248C203.86 61.3128 202.9 61.4888 202.036 61.5528C201.972 61.5528 201.94 61.5688 201.94 61.6008C201.94 61.6648 201.988 61.7608 202.084 61.8888C202.724 62.6248 203.444 63.1528 204.244 63.4728C205.044 63.7928 205.876 63.9528 206.74 63.9528C207.796 63.9528 208.868 63.7608 209.956 63.3768C211.044 62.9608 212.084 62.4328 213.076 61.7928C214.068 61.1208 214.98 60.3688 215.812 59.5368C216.676 58.6728 217.38 57.8088 217.924 56.9448C218.244 56.4648 218.532 55.9688 218.788 55.4568C219.044 54.9448 219.3 54.4328 219.556 53.9208L220.468 54.1608Z" fill="#FFF9F4"/>
<path d="M227.235 51.1848C227.235 50.3208 227.011 49.6168 226.563 49.0728C226.147 48.4968 225.459 48.2088 224.499 48.2088C223.987 48.2088 223.523 48.3688 223.107 48.6888C222.691 49.0088 222.339 49.4408 222.051 49.9848C221.763 50.4968 221.539 51.1048 221.379 51.8088C221.219 52.5128 221.139 53.2488 221.139 54.0168C221.139 55.2328 221.267 56.3208 221.523 57.2808C221.811 58.2088 222.211 59.0248 222.723 59.7288C223.395 59.1848 224.003 58.5608 224.547 57.8568C225.091 57.1528 225.555 56.4168 225.939 55.6488C226.355 54.8808 226.675 54.1128 226.899 53.3448C227.123 52.5768 227.235 51.8568 227.235 51.1848ZM239.379 54.1608C239.155 54.6408 238.915 55.1368 238.659 55.6488C238.435 56.1288 238.147 56.6088 237.795 57.0888C236.227 59.3288 234.435 61.0248 232.419 62.1768C230.435 63.2968 228.531 63.8568 226.707 63.8568C225.683 63.8568 224.723 63.6808 223.827 63.3288C222.963 62.9768 222.211 62.4488 221.571 61.7448C220.931 61.0408 220.419 60.1608 220.035 59.1048C219.651 58.0488 219.459 56.8008 219.459 55.3608C219.459 54.4008 219.603 53.4408 219.891 52.4808C220.179 51.5208 220.563 50.6568 221.043 49.8888C221.555 49.1208 222.131 48.4968 222.771 48.0168C223.443 47.5368 224.147 47.2968 224.883 47.2968C226.067 47.2968 226.931 47.6488 227.475 48.3528C228.019 49.0248 228.291 49.8888 228.291 50.9448C228.291 52.3848 227.843 53.9528 226.947 55.6488C226.083 57.3128 224.835 58.8648 223.203 60.3048C224.419 61.6808 225.987 62.3688 227.907 62.3688C229.347 62.3688 230.851 61.9368 232.419 61.0728C233.987 60.1768 235.459 58.8008 236.835 56.9448C237.187 56.4968 237.475 56.0168 237.699 55.5048C237.955 54.9608 238.211 54.4328 238.467 53.9208L239.379 54.1608Z" fill="#FFF9F4"/>
</svg>
